HIERARCHY
ROOT Hips
{
  OFFSET 3.13124 94.3669 -3.18751
  CHANNELS  6 Xposition Yposition Zposition Zrotation Xrotation Yrotation
  JOINT LeftUpLeg
  {
    OFFSET 8.64259 1.95398 -2.38835
    CHANNELS 3 Zrotation Xrotation Yrotation
    JOINT LeftLeg
    {
      OFFSET 43.7702 0 0
      CHANNELS 3 Zrotation Xrotation Yrotation
      JOINT LeftFoot
      {
        OFFSET 40.6238 0 0
        CHANNELS 3 Zrotation Xrotation Yrotation
        JOINT LeftToeBase
        {
          OFFSET 12.7242 0 0
          CHANNELS 3 Zrotation Xrotation Yrotation
          End Site
          {
            OFFSET 0 0 0
          }
        }
      }
    }
  }
  JOINT RightUpLeg
  {
    OFFSET -8.2249 1.95398 -2.59336
    CHANNELS 3 Zrotation Xrotation Yrotation
    JOINT RightLeg
    {
      OFFSET 43.5653 0 0
      CHANNELS 3 Zrotation Xrotation Yrotation
      JOINT RightFoot
      {
        OFFSET 40.6238 0 0
        CHANNELS 3 Zrotation Xrotation Yrotation
        JOINT RightToeBase
        {
          OFFSET 12.7242 0 0
          CHANNELS 3 Zrotation Xrotation Yrotation
          End Site
          {
            OFFSET 0 0 0
          }
        }
      }
    }
  }
  JOINT Spine
  {
    OFFSET 0.165834 0.87714 6.61349
    CHANNELS 3 Zrotation Xrotation Yrotation
    JOINT Spine1
    {
      OFFSET 7.38962 1.71661e-005 0
      CHANNELS 3 Zrotation Xrotation Yrotation
      JOINT Spine2
      {
        OFFSET 11.9445 1.14441e-005 0
        CHANNELS 3 Zrotation Xrotation Yrotation
        JOINT Spine3
        {
          OFFSET 14.7254 4.19617e-005 0
          CHANNELS 3 Zrotation Xrotation Yrotation
          JOINT Spine4
          {
            OFFSET 10.9679 0 0
            CHANNELS 3 Zrotation Xrotation Yrotation
            JOINT RightShoulder
            {
              OFFSET 2.46616 -1.6653 3.69651
              CHANNELS 3 Zrotation Xrotation Yrotation
              JOINT RightArm
              {
                OFFSET 13.0012 0 0
                CHANNELS 3 Zrotation Xrotation Yrotation
                JOINT RightForeArm
                {
                  OFFSET 28.7848 1.52588e-005 0
                  CHANNELS 3 Zrotation Xrotation Yrotation
                  JOINT RightHand
                  {
                    OFFSET 26.5688 1.52588e-005 0
                    CHANNELS 3 Zrotation Xrotation Yrotation
                    End Site
                    {
                      OFFSET 0 0 0
                    }
                  }
                }
              }
            }
            JOINT LeftShoulder
            {
              OFFSET 2.38034 -1.29275 -3.75231
              CHANNELS 3 Zrotation Xrotation Yrotation
              JOINT LeftArm
              {
                OFFSET 16.3182 6.10352e-005 0
                CHANNELS 3 Zrotation Xrotation Yrotation
                JOINT LeftForeArm
                {
                  OFFSET 27.0901 0 0
                  CHANNELS 3 Zrotation Xrotation Yrotation
                  JOINT LeftHand
                  {
                    OFFSET 24.5451 1.52588e-005 0
                    CHANNELS 3 Zrotation Xrotation Yrotation
                    End Site
                    {
                      OFFSET 0 0 0
                    }
                  }
                }
              }
            }
            JOINT Neck
            {
              OFFSET 5.0226 -0.0266342 0
              CHANNELS 3 Zrotation Xrotation Yrotation
              JOINT Head
              {
                OFFSET 6.69363 2.86102e-005 0
                CHANNELS 3 Zrotation Xrotation Yrotation
                End Site
                {
                  OFFSET 0 0 0
                }
              }
            }
          }
        }
      }
    }
  }
}
MOTION
Frames:	16
Frame Time:	0.0333333
9.12741 89.3785 -19.6668 -77.1747 -55.2508 -88.158 -168.887 14.689 106.866 -6.83575 -37.5116 1.86527 17.7875 -4.85926 -8.37809 28.7808 5.5925e-006 8.9408e-006 179.889 35.3834 86.3595 -45.6593 9.5662 0.259336 90.5319 11.4964 2.81849 28.7808 1.42541e-005 2.66417e-005 -1.8436 9.32713 -89.8985 8.33306 -3.79187 2.64713 -3.3354 -3.67173 2.81148 -25.9074 -4.41183 1.38377 -5.89474 -4.41182 1.38376 105.466 -10.1901 -72.318 13.2666 58.9656 -50.8277 -3.27547 -0.0223929 -9.90372 -5.37983 -0.320017 -0.0162409 -89.8187 -22.3089 70.7149 -19.0267 8.23669 -69.6831 91.9009 60.2956 -98.7112 -39.1446 3.79349 -16.0089 52.9619 27.6307 -24.4167 -40.6698 26.2617 42.8692 
12.0824 88.7938 -18.6514 -76.1577 -51.3598 -87.8965 -168.971 15.5334 107.388 -5.12862 -32.4161 2.36228 16.3409 -2.48967 -5.46953 28.7808 5.5925e-006 8.9408e-006 -179.604 38.5447 84.7435 -47.3231 10.2576 0.273344 90.678 12.8522 3.19302 28.7808 1.42541e-005 2.66417e-005 -1.72832 9.56037 -89.8876 7.86554 -3.6398 2.76328 -3.80359 -3.51468 2.92081 -26.3705 -4.30171 1.54055 -6.35787 -4.3017 1.54056 104.3 -10.0877 -75.7854 12.828 58.165 -42.9089 -3.28292 -0.0710291 -18.9877 -5.37983 -0.320017 -0.0162409 -89.8336 -22.4562 70.7478 -27.0843 4.09351 -71.085 106.239 67.6341 -106.252 -25.949 1.25203 -10.8259 54.5438 28.9376 -21.7726 -37.9253 27.6734 41.1203 
14.8659 88.0296 -17.4664 -75.4352 -48.6425 -87.0261 -168.613 16.8491 108.484 -5.19238 -28.6047 1.96603 20.7184 -1.5704 -3.78913 28.7808 5.5925e-006 8.9408e-006 -179.157 41.4192 83.7924 -49.1926 11.8567 0.351401 90.2637 14.1313 3.625 28.7808 1.42541e-005 2.66417e-005 -1.60947 9.82979 -90.1523 7.34065 -3.66117 2.78275 -4.32847 -3.53521 2.94119 -26.8957 -4.32797 1.55266 -6.88309 -4.32796 1.55266 103.355 -11.6786 -78.734 13.7234 57.2355 -38.2591 -3.2991 -0.120372 -28.5905 -5.37983 -0.320017 -0.0162409 -90.8413 -22.3609 68.5736 -33.1143 -1.52283 -72.0112 130.134 70.1786 -122.558 -18.3023 -0.0579633 -4.6598 56.3789 29.7524 -20.4094 -36.4748 28.6096 40.2087 
17.4038 87.4347 -16.295 -75.6325 -46.3895 -86.4754 -168.395 17.9957 109.983 -4.675 -27.2837 2.28946 19.9087 -1.97219 -4.37589 28.7808 5.5925e-006 8.9408e-006 -178.87 42.9033 83.2214 -49.869 13.2285 0.435464 90.2063 16.9382 4.46798 28.7808 1.42541e-005 2.66417e-005 -1.55939 10.143 -90.3011 6.72311 -3.74447 2.77549 -4.94576 -3.61872 2.93762 -27.5153 -4.40521 1.5206 -7.5026 -4.4052 1.52058 102.879 -13.9667 -80.209 16.3939 54.5374 -39.022 -3.31539 -0.153525 -35.41 -5.37983 -0.320017 -0.0162409 -90.5265 -20.5284 68.3881 -35.6244 -6.69349 -72.6811 133.837 73.9027 -122.899 -15.1867 -0.606934 0.109543 58.8138 30.5567 -19.6955 -35.7128 29.6493 39.5555 
19.7533 86.9459 -15.016 -76.3744 -44.4584 -86.0725 -168.293 18.9029 111.589 -3.90453 -30.5407 2.68088 17.9416 -2.4026 -5.14865 28.7808 5.5925e-006 8.9408e-006 -178.627 43.8609 82.7801 -50.5954 13.8534 0.463026 88.8799 17.5901 4.911 28.7808 1.42541e-005 2.66417e-005 -1.53193 10.4168 -90.4019 6.17524 -3.80175 2.62853 -5.49314 -3.68242 2.79335 -28.0655 -4.41567 1.36305 -8.05291 -4.41567 1.36304 101.666 -14.0847 -83.5436 18.1141 51.8563 -38.4943 -3.33071 -0.177708 -40.6981 -5.37983 -0.320017 -0.0162409 -89.0435 -20.9559 71.8039 -32.3598 -10.0101 -72.1102 78.4875 76.0555 -72.782 -18.9074 -1.63687 6.25253 57.8193 32.287 -16.374 -32.4924 30.5542 37.7618 
21.9211 86.5851 -13.6874 -77.4402 -42.7341 -85.645 -167.911 19.6426 112.984 -3.41954 -33.051 2.53045 19.135 -2.25148 -4.81693 28.7808 5.5925e-006 8.9408e-006 -178.542 43.9427 82.532 -50.4388 13.693 0.453593 87.8872 19.0319 5.56689 28.7808 1.42541e-005 2.66417e-005 -1.40958 10.6212 -90.4506 5.75205 -3.59974 2.42604 -5.91648 -3.48953 2.58218 -28.4856 -4.16221 1.23081 -8.47293 -4.16221 1.23081 100.336 -13.7537 -87.2285 19.6134 49.7313 -37.689 -3.33854 -0.188509 -43.1572 -5.37983 -0.320017 -0.0162409 -87.8954 -21.5477 74.543 -28.5005 -12.8899 -69.0732 25.346 59.9622 -26.4416 -10.952 -0.689642 3.54414 55.4051 33.8447 -12.6384 -29.2298 31.0504 35.6922 
23.8669 86.3896 -12.3465 -78.6993 -41.8953 -84.8888 -167.326 20.663 114.674 -3.25007 -37.1594 2.09281 18.9712 -3.8116 -6.8312 28.7808 5.5925e-006 8.9408e-006 -178.66 43.0748 82.5841 -49.5026 15.1217 0.565963 86.7925 21.2952 6.5478 28.7808 1.42541e-005 2.66417e-005 -1.27793 10.8273 -90.4906 5.32409 -3.36744 2.20895 -6.34462 -3.26698 2.35506 -28.9099 -3.87543 1.09376 -8.8973 -3.87543 1.09377 99.5323 -13.9659 -89.4111 20.9141 46.6382 -37.9748 -3.34308 -0.194316 -44.5163 -5.37983 -0.320017 -0.0162409 -86.9761 -21.1083 76.3941 -25.773 -15.5322 -65.0051 6.53949 34.8407 -15.5784 0.347565 0.0359376 0.678202 54.7961 34.9856 -10.9953 -27.9009 31.7561 34.6119 
25.6829 86.3281 -10.8749 -79.357 -42.0687 -83.8197 -167.049 21.9536 115.769 -3.59871 -43.0139 1.30451 20.1218 -3.13318 -5.81774 28.7808 5.5925e-006 8.9408e-006 -178.614 42.2009 82.096 -48.5317 17.161 0.714662 84.5929 22.9726 7.65236 28.7808 1.42541e-005 2.66417e-005 -1.22554 10.8996 -90.3251 5.16302 -3.1579 2.14392 -6.5061 -3.06048 2.28084 -29.0673 -3.65607 1.09491 -9.05459 -3.65606 1.0949 98.8321 -16.6705 -90.8179 21.8701 43.792 -40.5113 -3.34183 -0.192778 -44.1495 -5.37983 -0.320017 -0.0162409 -86.7034 -20.2955 76.7133 -22.5752 -18.8854 -57.7056 -2.45982 12.7133 -16.5565 8.85629 0.313485 -0.270163 55.6831 34.4472 -13.3133 -29.3658 31.8795 36.1778 
27.3194 86.5602 -9.45015 -79.7356 -42.9821 -82.5958 -166.617 23.7066 116.291 -5.50508 -48.1185 -0.679918 23.2416 -0.514089 -2.32046 28.7808 5.5925e-006 8.9408e-006 -178.677 40.5595 81.5639 -46.4717 19.2541 0.877338 82.3398 24.6293 8.85293 28.7808 1.42541e-005 2.66417e-005 -1.28219 10.9809 -90.0126 4.97835 -3.01159 1.96099 -6.69079 -2.92241 2.09166 -29.2501 -3.46157 0.9645 -9.23752 -3.46161 0.964488 98.3733 -17.1089 -91.9147 22.083 41.0763 -41.7827 -3.33582 -0.184913 -42.3246 -5.37983 -0.320017 -0.0162409 -85.9595 -21.5639 78.7811 -21.7042 -22.5501 -53.7685 -1.79333 11.2158 -16.3089 10.497 0.0317018 -3.27402 56.6863 34.5755 -13.5223 -29.2695 32.3197 35.6313 
28.6789 86.9972 -7.97251 -80.39 -44.6802 -82.0069 -166 26.1235 116.042 -10.2047 -49.9728 -3.7197 26.9197 1.7302 0.403198 28.7808 5.5925e-006 8.9408e-006 -178.724 38.1218 80.5968 -44.1507 21.6103 1.05259 79.7785 26.2114 10.2025 28.7808 1.42541e-005 2.66417e-005 -1.40533 11.0583 -89.4481 4.78827 -2.73256 1.76029 -6.88116 -2.65247 1.87888 -29.4364 -3.13519 0.857121 -9.42371 -3.13516 0.85712 98.1221 -16.2419 -92.7469 21.8494 39.3794 -41.1817 -3.32974 -0.176459 -40.4004 -5.37983 -0.320017 -0.0162409 -84.6759 -23.2011 82.0378 -20.6469 -25.4722 -51.2559 -0.802282 13.7851 -14.5081 13.5029 -0.0582843 -4.40576 57.845 34.7943 -12.4036 -28.3054 32.6315 33.4897 
29.817 87.3688 -6.15052 -81.0602 -47.7531 -81.6543 -165.972 30.1296 115.397 -18.4421 -49.0754 -7.14465 31.2217 4.20649 3.07141 28.7808 5.5925e-006 8.9408e-006 -178.852 34.9296 79.1329 -42.135 24.8486 1.29872 77.9083 28.2889 11.6476 28.7808 1.42541e-005 2.66417e-005 -1.38828 11.1037 -89.0683 4.67305 -2.34418 1.5854 -6.99687 -2.27213 1.68704 -29.5464 -2.71222 0.807248 -9.53375 -2.71221 0.807254 98.1571 -17.0747 -92.4755 21.6031 39.2685 -41.0708 -3.32011 -0.16156 -37.1307 -5.37983 -0.320017 -0.0162409 -83.3131 -23.7957 85.1003 -20.1449 -28.051 -48.9913 4.04856 21.5603 -11.8008 -2.75054 -0.101179 -11.5089 58.6856 34.6055 -11.549 -27.9338 32.4299 31.7505 
30.6799 87.5987 -3.85303 -82.46 -53.15 -81.8496 -166.242 33.4255 114.044 -25.2933 -49.9275 -10.3622 33.9326 7.26189 6.04915 28.7808 5.5925e-006 8.9408e-006 -179.168 30.3575 77.3809 -41.1473 29.8674 1.69327 75.8137 31.1167 13.6074 28.7808 1.42541e-005 2.66417e-005 -1.30592 11.0821 -88.9574 4.70252 -2.06105 1.24468 -6.96749 -2.00429 1.3342 -29.5144 -2.33982 0.567454 -9.50177 -2.3398 0.567465 98.2073 -18.5537 -92.0438 20.8623 40.6216 -39.4877 -3.31329 -0.149843 -34.6259 -5.37983 -0.320017 -0.0162409 -82.5113 -24.3415 86.9147 -17.8302 -28.9123 -43.7317 3.99536 29.0728 -9.88434 2.43072 -0.513399 -14.5016 56.594 34.0675 -11.6461 -28.8799 31.5605 32.276 
31.315 87.7925 -0.965946 -85.6883 -60.819 -83.7137 -166.575 34.4845 111.57 -29.318 -52.3082 -13.4608 36.7498 11.6185 9.98649 28.7808 5.5925e-006 8.9408e-006 -179.672 24.1627 75.521 -41.5032 35.7266 2.20025 69.8493 34.5755 17.563 28.7808 1.42541e-005 2.66417e-005 -1.17967 11.006 -89.0352 4.8448 -1.87325 0.707824 -6.82502 -1.84029 0.789585 -29.3709 -1.99934 0.111892 -9.35828 -1.99935 0.111888 98.5986 -20.1498 -90.7923 19.5437 42.6891 -36.8733 -3.3048 -0.133271 -31.1899 -5.37983 -0.320017 -0.0162409 -81.9957 -26.081 88.2689 -16.8667 -30.9113 -37.9058 4.69435 27.0552 -10.4583 2.01403 -0.340995 -11.1007 52.5994 33.1558 -12.9107 -31.0462 30.2956 33.9908 
32.032 88.0479 2.58619 -90.8267 -69.4537 -87.4775 -167.57 33.9446 108.517 -29.9267 -50.1719 -12.8149 42.7333 13.3953 10.6872 28.7808 5.5925e-006 8.9408e-006 179.674 17.2669 73.7724 -41.983 39.2366 2.52522 55.471 39.2416 26.8596 28.7808 1.42541e-005 2.66417e-005 -0.914045 10.8136 -89.2394 5.2243 -1.53998 0.0066886 -6.44573 -1.53819 0.0744545 -28.9878 -1.47077 -0.456545 -8.97515 -1.47077 -0.456556 99.4458 -22.8857 -88.3895 17.5151 45.9594 -34.9051 -3.29644 -0.113974 -27.3101 -5.37983 -0.320017 -0.0162409 -80.874 -28.8175 90.8855 -15.5239 -32.009 -33.406 6.47098 33.2382 -11.6587 4.01144 0.0141034 -2.35928 47.4249 31.7665 -14.9063 -33.1247 28.6363 36.0292 
32.8121 88.5278 6.5925 -100.509 -78.3092 -95.127 -168.512 34.936 106.959 -33.5158 -41.6674 -10.3702 48.4969 10.923 7.86225 28.7808 5.5925e-006 8.9408e-006 179.337 11.7273 73.344 -42.6861 34.5484 1.99944 37.7908 29.4839 27.848 28.7808 1.42541e-005 2.66417e-005 -0.717272 10.3512 -89.4597 6.14386 -1.23704 -0.932591 -5.5268 -1.27689 -0.877245 -28.062 -0.899616 -1.26125 -8.04935 -0.899601 -1.26126 99.7287 -25.5335 -87.4771 14.9511 49.5324 -32.5792 -3.29066 -0.09807 -24.1877 -5.37983 -0.320017 -0.0162409 -80.0023 -32.3241 92.8716 -10.0305 -32.7134 -25.5583 8.4488 37.9655 -14.1334 -4.22967 -0.137318 -1.2817 36.9452 30.5263 -16.0663 -32.5296 26.4715 39.0268 
33.6201 89.2553 10.6981 -147.136 -85.2863 -141.316 -169.036 33.5059 104.208 -34.9838 -34.3614 -8.14931 52.0163 9.39536 6.32703 28.7808 5.5925e-006 8.9408e-006 178.03 5.14418 72.5152 -38.951 27.4748 1.38378 19.3886 20.0705 26.8536 28.7808 1.42541e-005 2.66417e-005 -0.307692 9.82984 -89.4354 7.19787 -0.628086 -1.16643 -4.47343 -0.678807 -1.13766 -27.0047 -0.248528 -1.30125 -6.99202 -0.248518 -1.30124 101.126 -29.9913 -84.1961 13.5854 51.5751 -32.2492 -3.28833 -0.0908202 -22.7834 -5.37983 -0.320017 -0.0162409 -80.6215 -31.0099 91.5837 -6.23175 -33.7898 -16.3951 10.0852 40.2724 -14.6834 -8.57372 -0.267808 -1.08445 28.0253 27.3075 -21.2517 -31.9388 23.3708 43.4454 
